#!OML:ASF H:\Terrain\Patient Classification 1\Animal2\Wednesday\Animal2.ASF
:FULLY-SPECIFIED
:DEGREES
1715
root 17.2034 15.7523 -0.208645 -32.1595 -78.1991 34.2957
lowerback 12.7304 1.76845 6.26799
upperback -6.07394 3.79046 2.5052
thorax -13.7281 1.31006 -1.64415
lowerneck 5.75473 6.2245 15.6124
upperneck -29.8967 2.35298 -30.1059
head -9.11686 1.91354 -14.805
rclavicle -8.94531e-015 3.18055e-015
rhumerus 10.9278 -7.47848 -43.3539
rradius 46.3886
rwrist -3.40871
rhand -25.868 18.7357
rfingers 7.12502
rthumb 0.673203 -11.243
lclavicle -8.94531e-015 3.18055e-015
lhumerus 49.875 55.9533 -6.30159
lradius 55.0755
lwrist 68.8806
lhand -22.3352 23.9428
lfingers 7.12502
lthumb 4.0851 53.8834
rfemur -16.2447 13.5034 -11.6942
rtibia 45.1009
rfoot -25.8908 -21.5009
rtoes -22.949
lfemur -20.9159 -12.0658 -5.54441
ltibia 47.3656
lfoot -32.2949 -5.48532
ltoes -34.8349
1716
root 17.2152 15.7445 -0.200957 -33.1109 -78.2335 35.222
lowerback 12.9216 1.81709 6.28865
upperback -6.02176 3.88656 2.61421
thorax -13.7863 1.35702 -1.56456
lowerneck 5.89075 6.31098 15.5514
upperneck -30.113 2.37881 -30.3311
head -9.20723 1.94997 -14.9449
rclavicle -1.15295e-014 -3.18055e-015
rhumerus 9.07688 -7.48309 -44.2525
rradius 45.5058
rwrist -2.61564
rhand -26.1457 18.13
rfingers 7.12502
rthumb 0.404978 -11.8494
lclavicle -1.15295e-014 -3.18055e-015
lhumerus 49.6667 55.9928 -6.1752
lradius 55.0804
lwrist 68.9034
lhand -22.3213 23.5165
lfingers 7.12502
lthumb 4.09851 53.4569
rfemur -16.3527 13.8488 -11.8598
rtibia 45.1981
rfoot -25.738 -21.8914
rtoes -23.2414
lfemur -20.9639 -11.9972 -5.75143
ltibia 47.573
lfoot -32.561 -5.51723
ltoes -34.551
1717
root 17.2266 15.7354 -0.193183 -33.0069 -78.3473 35.0809
lowerback 13.1061 1.79251 6.47243
upperback -5.96045 3.92492 2.8424
thorax -13.8348 1.36826 -1.42879
lowerneck 6.07259 6.49334 15.5565
upperneck -30.4016 2.54432 -30.6002
head -9.28451 2.05263 -15.1311
rclavicle 1.43125e-014 1.27222e-014
rhumerus 7.39152 -7.63658 -45.1204
rradius 44.4113
rwrist -2.65035
rhand -25.7516 18.6837
rfingers 7.12502
rthumb 0.785653 -11.2946
lclavicle 1.43125e-014 1.27222e-014
lhumerus 49.2085 56.0536 -6.25145
lradius 55.1141
lwrist 68.9402
lhand -22.3815 23.4349
lfingers 7.12502
lthumb 4.04037 53.3763
rfemur -16.414 14.2395 -11.7661
rtibia 45.2726
rfoot -25.8698 -22.0966
rtoes -22.9183
lfemur -21.0391 -11.8987 -5.67734
ltibia 47.767
lfoot -32.7463 -5.51219
ltoes -34.4141
1718
root 17.2379 15.7289 -0.186206 -32.5265 -78.4282 34.5568
lowerback 13.3051 1.76537 6.76936
upperback -5.89035 3.98356 3.08466
thorax -13.8758 1.37926 -1.34513
lowerneck 6.26316 6.62733 15.3246
upperneck -30.7015 2.60199 -30.7865
head -9.41645 2.1207 -15.2349
rclavicle 1.98785e-015 -9.54166e-015
rhumerus 5.60135 -8.01915 -45.7245
rradius 43.3219
rwrist -3.29626
rhand -24.7039 19.4611
rfingers 7.12502
rthumb 1.79758 -10.5111
lclavicle 1.98785e-015 -9.54166e-015
lhumerus 48.9958 56.1828 -5.94622
lradius 55.1177
lwrist 68.7637
lhand -22.192 23.3136
lfingers 7.12502
lthumb 4.22336 53.2515
rfemur -16.4543 14.6366 -11.6236
rtibia 45.3623
rfoot -26.2173 -22.0814
rtoes -21.8225
lfemur -21.1335 -11.8207 -5.53457
ltibia 47.917
lfoot -32.719 -5.41467
ltoes -34.3707
1719
root 17.2465 15.7263 -0.18338 -32.866 -78.4263 34.9089
lowerback 13.4447 1.77306 6.94311
upperback -5.83016 4.04392 3.15341
thorax -13.8832 1.39509 -1.38477
lowerneck 6.39094 6.68698 15.1257
upperneck -30.9553 2.57352 -30.8949
head -9.54899 2.13509 -15.3006
rclavicle -2.0276e-014 2.22639e-014
rhumerus 3.59959 -8.63645 -46.5084
rradius 42.191
rwrist -3.12981
rhand -24.1863 19.7605
rfingers 7.12502
rthumb 2.29743 -10.2069
lclavicle -2.0276e-014 2.22639e-014
lhumerus 49.2651 56.3533 -5.3444
lradius 55.1589
lwrist 68.5222
lhand -22.154 23.1945
lfingers 7.12502
lthumb 4.26003 53.1317
rfemur -16.5699 14.9444 -11.7059
rtibia 45.4965
rfoot -26.4628 -22.0087
rtoes -21.1866
lfemur -21.2204 -11.7471 -5.6087
ltibia 48.0147
lfoot -32.5544 -5.31222
ltoes -34.5133
1720
root 17.2516 15.7191 -0.184376 -34.3204 -78.294 36.4675
lowerback 13.4848 1.80983 6.76444
upperback -5.76276 4.05705 3.12175
thorax -13.8345 1.41955 -1.32594
lowerneck 6.39071 6.75127 15.2591
upperneck -31.1323 2.60333 -31.0986
head -9.58805 2.1437 -15.4607
rclavicle -2.04748e-014 3.18055e-015
rhumerus 1.65244 -9.32363 -47.4591
rradius 40.7646
rwrist -2.54833
rhand -24.6486 20.0622
rfingers 7.12502
rthumb 1.8509 -9.90947
lclavicle -2.04748e-014 3.18055e-015
lhumerus 49.532 56.5483 -4.84738
lradius 55.2521
lwrist 68.4354
lhand -22.2073 23.2524
lfingers 7.12502
lthumb 4.2086 53.1906
rfemur -16.7873 15.0996 -12.1197
rtibia 45.6837
rfoot -26.5253 -22.0703
rtoes -21.3764
lfemur -21.3164 -11.7558 -5.96967
ltibia 48.0651
lfoot -32.4114 -5.13097
ltoes -34.9981
1721
root 17.2578 15.7073 -0.185243 -35.9372 -78.1408 38.2177
lowerback 13.5172 1.85128 6.49965
upperback -5.67242 4.06441 3.15258
thorax -13.7648 1.45336 -1.1478
lowerneck 6.26639 6.86804 15.6357
upperneck -31.1109 2.71398 -31.6172
head -9.47523 2.18493 -15.784
rclavicle -3.00165e-014 -4.45278e-014
rhumerus -0.173717 -9.96113 -48.2728
rradius 39.1854
rwrist -2.01974
rhand -24.9276 20.0486
rfingers 7.12502
rthumb 1.58145 -9.92529
lclavicle -3.00165e-014 -4.45278e-014
lhumerus 49.4427 56.757 -4.60457
lradius 55.3279
lwrist 68.5236
lhand -22.1342 23.5442
lfingers 7.12502
lthumb 4.2792 53.4809
rfemur -17.0497 15.2999 -12.598
rtibia 45.8971
rfoot -26.7888 -22.151
rtoes -21.0657
lfemur -21.4182 -11.7914 -6.36304
ltibia 48.1062
lfoot -32.3313 -4.90065
ltoes -34.8429
1722
root 17.2645 15.6978 -0.185972 -36.838 -78.0604 39.2162
lowerback 13.6337 1.90263 6.39061
upperback -5.63784 4.13426 3.26745
thorax -13.8083 1.50028 -0.980768
lowerneck 6.03334 6.92575 15.4058
upperneck -31.0404 2.74216 -31.5968
head -9.39959 2.20679 -15.6854
rclavicle 1.2921e-014 -9.54166e-015
rhumerus -2.25745 -10.5801 -48.7643
rradius 37.7529
rwrist -1.50313
rhand -24.368 19.6994
rfingers 7.12502
rthumb 2.12194 -10.2698
lclavicle 1.2921e-014 -9.54166e-015
lhumerus 49.3575 56.8332 -4.2917
lradius 55.3337
lwrist 68.5494
lhand -22.1256 23.7487
lfingers 7.12502
lthumb 4.28753 53.6853
rfemur -17.2778 15.5418 -12.8749
rtibia 46.1099
rfoot -27.096 -22.1825
rtoes -20.4938
lfemur -21.5336 -11.7268 -6.57798
ltibia 48.1707
lfoot -32.4117 -4.82038
ltoes -34.5612
1723
root 17.2708 15.6892 -0.186432 -37.3913 -77.9162 39.8061
lowerback 13.8333 1.92145 6.34695
upperback -5.65118 4.18289 3.37082
thorax -13.9571 1.52617 -0.8609
lowerneck 6.21404 6.99922 15.2827
upperneck -31.2676 2.76519 -31.7214
head -9.51421 2.24416 -15.7765
rclavicle -9.14409e-015 1.27222e-014
rhumerus -4.51335 -11.2804 -49.0817
rradius 36.2822
rwrist -0.906355
rhand -23.6711 19.3545
rfingers 7.12502
rthumb 2.79496 -10.607
lclavicle -9.14409e-015 1.27222e-014
lhumerus 49.4564 56.8026 -3.78073
lradius 55.3018
lwrist 68.4087
lhand -22.1585 23.66
lfingers 7.12502
lthumb 4.25572 53.5972
rfemur -17.3875 15.7153 -13.0875
rtibia 46.3165
rfoot -27.2517 -22.214
rtoes -19.922
lfemur -21.6731 -11.6901 -6.76676
ltibia 48.2687
lfoot -32.5051 -4.79365
ltoes -34.5232
1724
root 17.2756 15.6806 -0.189205 -37.8207 -77.7605 40.3098
lowerback 13.9573 1.86819 6.36224
upperback -5.63575 4.13561 3.46945
thorax -14.0265 1.50539 -0.752112
lowerneck 6.39492 7.13074 15.1923
upperneck -31.5479 2.85401 -31.8992
head -9.62263 2.31188 -15.9082
rclavicle 1.39149e-015 2.22639e-014
rhumerus -6.51752 -12.1628 -49.5657
rradius 34.5833
rwrist -0.066419
rhand -23.3111 18.8169
rfingers 7.12502
rthumb 3.14265 -11.1397
lclavicle 1.39149e-015 2.22639e-014
lhumerus 49.4072 56.8649 -3.4529
lradius 55.3166
lwrist 68.2441
lhand -22.2236 23.685
lfingers 7.12502
lthumb 4.19281 53.6235
rfemur -17.5246 15.9073 -13.2737
rtibia 46.538
rfoot -27.4791 -22.2986
rtoes -19.0858
lfemur -21.8587 -11.6837 -6.9279
ltibia 48.3782
lfoot -32.5741 -4.81839
ltoes -34.7574
1725
root 17.2784 15.6751 -0.193495 -38.2766 -77.7049 40.9144
lowerback 13.9815 1.84308 6.43791
upperback -5.59259 4.12209 3.5343
thorax -13.9923 1.49699 -0.719186
lowerneck 6.4737 7.25738 15.3469
upperneck -31.7661 2.96293 -32.1901
head -9.66147 2.36611 -16.1321
rclavicle -9.93923e-015 9.85972e-014
rhumerus -8.39961 -13.5428 -50.1352
rradius 32.6438
rwrist 1.21804
rhand -22.9848 18.4778
rfingers 7.12502
rthumb 3.45777 -11.4739
lclavicle -9.93923e-015 9.85972e-014
lhumerus 49.3647 56.9891 -3.22698
lradius 55.3283
lwrist 68.1194
lhand -22.3561 23.64
lfingers 7.12502
lthumb 4.06489 53.5809
rfemur -17.8095 16.148 -13.4178
rtibia 46.7886
rfoot -27.6891 -22.5224
rtoes -18.9955
lfemur -22.0619 -11.5711 -7.02643
ltibia 48.4877
lfoot -32.4764 -5.01673
ltoes -35.0779
1726
root 17.282 15.6692 -0.197157 -38.8435 -77.63 41.5664
lowerback 14.0971 1.93069 6.47236
upperback -5.59018 4.25688 3.51992
thorax -14.0503 1.55317 -0.792522
lowerneck 6.67964 7.22344 15.871
upperneck -31.8479 2.92695 -32.6382
head -9.70423 2.33261 -16.5257
rclavicle -2.98177e-015 1.59028e-014
rhumerus -10.6682 -15.5058 -50.3435
rradius 30.629
rwrist 2.95121
rhand -22.6444 18.3072
rfingers 7.12502
rthumb 3.7865 -11.6389
lclavicle -2.98177e-015 1.59028e-014
lhumerus 49.9179 56.9768 -2.44491
lradius 55.2291
lwrist 67.9073
lhand -22.3771 23.2458
lfingers 7.12502
lthumb 4.04462 53.1871
rfemur -18.0331 16.407 -13.5708
rtibia 47.0701
rfoot -27.9272 -22.7739
rtoes -19.3677
lfemur -22.1929 -11.3916 -7.15864
ltibia 48.5843
lfoot -32.3998 -5.21243
ltoes -35.4124
1727
root 17.2856 15.6595 -0.201494 -39.6293 -77.4726 42.3742
lowerback 14.3023 1.83412 6.31213
upperback -5.44169 4.12798 3.72624
thorax -14.0365 1.52145 -0.448293
lowerneck 6.37982 7.54336 15.6772
upperneck -31.9549 3.21141 -32.9696
head -9.56729 2.49176 -16.6185
rclavicle 1.35174e-014 7.95139e-014
rhumerus -12.3758 -17.0836 -50.4841
rradius 28.6456
rwrist 4.87809
rhand -22.5281 17.786
rfingers 7.12502
rthumb 3.89881 -12.1581
lclavicle 1.35174e-014 7.95139e-014
lhumerus 49.146 57.168 -2.75257
lradius 55.1601
lwrist 67.5866
lhand -22.448 23.2228
lfingers 7.12502
lthumb 3.97614 53.1654
rfemur -18.1633 16.6519 -13.7996
rtibia 47.3784
rfoot -28.0412 -23.1056
rtoes -19.7063
lfemur -22.2567 -11.2627 -7.39468
ltibia 48.6571
lfoot -32.5643 -5.0524
ltoes -36.0261
